<svg width="60" height="60" viewBox="0 0 60 60" fill="none" xmlns="http://www.w3.org/2000/svg">
  <!-- Main F shape with rounded corners -->
  <path d="M12 10C12 10 38 10 45 10C50 10 53 15 45 17C37 19 26 17 26 21C26 25 40 28 26 38C18 44 10 38 16 30"
        fill="url(#blue-gradient)" />
        
  <!-- Flowing ribbon/wave element -->
  <path d="M16 32C20 28 28 32 32 32C36 32 40 28 44 30C48 32 42 42 36 42C30 42 24 36 16 38C8 40 12 36 16 32Z"
        fill="url(#accent-gradient)" />
        
  <!-- Define gradients -->
  <defs>
    <linearGradient id="blue-gradient" x1="12" y1="10" x2="40" y2="40" gradientUnits="userSpaceOnUse">
      <stop offset="0" stop-color="#3A76F0" />
      <stop offset="1" stop-color="#2950B5" />
    </linearGradient>
    
    <linearGradient id="accent-gradient" x1="10" y1="32" x2="48" y2="42" gradientUnits="userSpaceOnUse">
      <stop offset="0" stop-color="#3AFFE0" />
      <stop offset="1" stop-color="#3A76F0" />
    </linearGradient>
  </defs>
</svg> 