<svg width="150" height="50" viewBox="0 0 150 50" fill="none" xmlns="http://www.w3.org/2000/svg">
  <path d="M10 10H15V40H10V10Z" fill="white"/>
  <path d="M25 10H30V25H40V10H45V40H40V30H30V40H25V10Z" fill="white"/>
  <path d="M55 10H60V25H70V10H75V25H85V10H90V40H85V30H75V40H70V30H60V40H55V10Z" fill="white"/>
  <path d="M95 10H120C122.761 10 125 12.2386 125 15V35C125 37.7614 122.761 40 120 40H95V10ZM100 15V35H120V15H100Z" fill="white"/>
  <path d="M130 10H150V15H140V22.5H150V27.5H140V40H130V10Z" fill="white"/>
</svg> 